<svg width="44" height="65" viewBox="0 0 44 65" fill="none" xmlns="http://www.w3.org/2000/svg">
<g clip-path="url(#clip0_191_285)">
<path d="M37.25 22.2977C39.5505 21.1523 41.3965 19.2631 42.4885 16.9367C43.5805 14.6103 43.8543 11.9831 43.2657 9.48153C42.677 6.97992 41.2604 4.7506 39.2456 3.15526C37.2308 1.55992 34.736 0.692162 32.1661 0.692772H11.7612C9.1913 0.692162 6.69655 1.55992 4.68174 3.15526C2.66694 4.7506 1.25028 6.97992 0.66162 9.48153C0.0729603 11.9831 0.346834 14.6103 1.43881 16.9367C2.53078 19.2631 4.37678 21.1523 6.67732 22.2977C4.77932 23.2422 3.18242 24.6974 2.06615 26.4998C0.949889 28.3021 0.358521 30.3801 0.358536 32.5001C0.358552 34.6201 0.94995 36.6981 2.06624 38.5004C3.18253 40.3028 4.77945 41.7579 6.67747 42.7024C4.85976 43.6083 3.31704 44.9834 2.20885 46.6854C1.10066 48.3873 0.467222 50.3544 0.374047 52.3832C0.280871 54.4121 0.731337 56.4289 1.67886 58.2253C2.62639 60.0217 4.03657 61.5323 5.7636 62.6011C7.49062 63.6698 9.47177 64.2578 11.5022 64.3042C13.5326 64.3507 15.5386 63.8539 17.3127 62.8653C19.0868 61.8767 20.5646 60.4321 21.5933 58.681C22.622 56.9298 23.1642 54.9356 23.1639 52.9047V39.4863C24.2134 40.8396 25.5544 41.939 27.0872 42.7029C28.62 43.4667 30.3052 43.8753 32.0176 43.8983C33.73 43.9214 35.4256 43.5582 36.9783 42.8359C38.5311 42.1135 39.9011 41.0506 40.9867 39.726C42.0722 38.4014 42.8452 36.8492 43.2484 35.1848C43.6516 33.5204 43.6745 31.7865 43.3155 30.112C42.9565 28.4375 42.2247 26.8654 41.1746 25.5125C40.1246 24.1597 38.7831 23.0609 37.25 22.2977ZM41.1682 12.0955C41.1655 14.4811 40.217 16.7684 38.5306 18.4558C36.8442 20.1433 34.5576 21.0932 32.1719 21.0975L32.1661 21.0973L32.1545 21.0976L23.1639 21.0973V3.09334H32.1661C34.5527 3.09605 36.8409 4.04535 38.5285 5.73299C40.2162 7.42063 41.1655 9.70879 41.1682 12.0955ZM25.1796 23.4979C24.4267 24.0837 23.7496 24.7608 23.1639 25.5137V23.4979L25.1796 23.4979ZM2.75911 12.0955C2.76181 9.70879 3.71112 7.42063 5.39876 5.73299C7.0864 4.04535 9.37455 3.09605 11.7612 3.09334H20.7634V21.0973H11.7612L11.7555 21.0974C9.36986 21.0932 7.08319 20.1433 5.39678 18.4559C3.71037 16.7684 2.76184 14.4811 2.75911 12.0955ZM11.7612 61.9067C10.5785 61.9076 9.40709 61.6755 8.31407 61.2235C7.22105 60.7716 6.22781 60.1086 5.39112 59.2726C4.55443 58.4366 3.89069 57.4439 3.43784 56.3513C2.98499 55.2586 2.7519 54.0875 2.7519 52.9047C2.7519 51.7219 2.98499 50.5507 3.43784 49.4581C3.89069 48.3654 4.55443 47.3727 5.39112 46.5367C6.22781 45.7007 7.22105 45.0378 8.31407 44.5858C9.40709 44.1339 10.5785 43.9017 11.7612 43.9027L20.7634 43.9024V52.9047C20.7607 55.2913 19.8113 57.5795 18.1237 59.2671C16.4361 60.9547 14.1479 61.904 11.7612 61.9067ZM20.7634 41.5018L11.7612 41.5021C9.3745 41.5017 7.0856 40.5535 5.39779 38.866C3.70999 37.1784 2.76143 34.8897 2.76067 32.5029C2.75992 30.1162 3.70702 27.8268 5.39376 26.1382C7.0805 24.4496 9.3688 23.4999 11.7555 23.498L11.7612 23.4982L20.7634 23.4979V41.5018ZM32.1661 41.5021C29.7801 41.5014 27.492 40.5534 25.8046 38.8665C24.1172 37.1797 23.1685 34.8919 23.1669 32.5059C23.1654 30.1199 24.1112 27.831 25.7964 26.1419C27.4817 24.4529 29.7685 23.502 32.1545 23.4982H32.1661L32.1718 23.498C34.5578 23.501 36.845 24.4512 38.5308 26.1397C40.2167 27.8282 41.1632 30.1169 41.1624 32.5029C41.1617 34.8889 40.2137 37.1771 38.5268 38.8645C36.8399 40.5519 34.5521 41.5006 32.1661 41.5021Z" fill="white"/>
<path d="M37.25 22.2977C39.5505 21.1523 41.3965 19.2631 42.4885 16.9367C43.5805 14.6103 43.8543 11.9831 43.2657 9.48153C42.677 6.97992 41.2604 4.7506 39.2456 3.15526C37.2308 1.55992 34.736 0.692162 32.1661 0.692772H11.7612C9.1913 0.692162 6.69655 1.55992 4.68174 3.15526C2.66694 4.7506 1.25028 6.97992 0.66162 9.48153C0.0729603 11.9831 0.346834 14.6103 1.43881 16.9367C2.53078 19.2631 4.37678 21.1523 6.67732 22.2977C4.77932 23.2422 3.18242 24.6974 2.06615 26.4998C0.949889 28.3021 0.358521 30.3801 0.358536 32.5001C0.358552 34.6201 0.94995 36.6981 2.06624 38.5004C3.18253 40.3028 4.77945 41.7579 6.67747 42.7024C4.85976 43.6083 3.31704 44.9834 2.20885 46.6854C1.10066 48.3873 0.467222 50.3544 0.374047 52.3832C0.280871 54.4121 0.731337 56.4289 1.67886 58.2253C2.62639 60.0217 4.03657 61.5323 5.7636 62.6011C7.49062 63.6698 9.47177 64.2578 11.5022 64.3042C13.5326 64.3507 15.5386 63.8539 17.3127 62.8653C19.0868 61.8767 20.5646 60.4321 21.5933 58.681C22.622 56.9298 23.1642 54.9356 23.1639 52.9047V39.4863C24.2134 40.8396 25.5544 41.939 27.0872 42.7029C28.62 43.4667 30.3052 43.8753 32.0176 43.8983C33.73 43.9214 35.4256 43.5582 36.9783 42.8359C38.5311 42.1135 39.9011 41.0506 40.9867 39.726C42.0722 38.4014 42.8452 36.8492 43.2484 35.1848C43.6516 33.5204 43.6745 31.7865 43.3155 30.112C42.9565 28.4375 42.2247 26.8654 41.1746 25.5125C40.1246 24.1597 38.7831 23.0609 37.25 22.2977ZM41.1682 12.0955C41.1655 14.4811 40.217 16.7684 38.5306 18.4558C36.8442 20.1433 34.5576 21.0932 32.1719 21.0975L32.1661 21.0973L32.1545 21.0976L23.1639 21.0973V3.09334H32.1661C34.5527 3.09605 36.8409 4.04535 38.5285 5.73299C40.2162 7.42063 41.1655 9.70879 41.1682 12.0955ZM25.1796 23.4979C24.4267 24.0837 23.7496 24.7608 23.1639 25.5137V23.4979L25.1796 23.4979ZM2.75911 12.0955C2.76181 9.70879 3.71112 7.42063 5.39876 5.73299C7.0864 4.04535 9.37455 3.09605 11.7612 3.09334H20.7634V21.0973H11.7612L11.7555 21.0974C9.36986 21.0932 7.08319 20.1433 5.39678 18.4559C3.71037 16.7684 2.76184 14.4811 2.75911 12.0955ZM11.7612 61.9067C10.5785 61.9076 9.40709 61.6755 8.31407 61.2235C7.22105 60.7716 6.22781 60.1086 5.39112 59.2726C4.55443 58.4366 3.89069 57.4439 3.43784 56.3513C2.98499 55.2586 2.7519 54.0875 2.7519 52.9047C2.7519 51.7219 2.98499 50.5507 3.43784 49.4581C3.89069 48.3654 4.55443 47.3727 5.39112 46.5367C6.22781 45.7007 7.22105 45.0378 8.31407 44.5858C9.40709 44.1339 10.5785 43.9017 11.7612 43.9027L20.7634 43.9024V52.9047C20.7607 55.2913 19.8113 57.5795 18.1237 59.2671C16.4361 60.9547 14.1479 61.904 11.7612 61.9067ZM20.7634 41.5018L11.7612 41.5021C9.3745 41.5017 7.0856 40.5535 5.39779 38.866C3.70999 37.1784 2.76143 34.8897 2.76067 32.5029C2.75992 30.1162 3.70702 27.8268 5.39376 26.1382C7.0805 24.4496 9.3688 23.4999 11.7555 23.498L11.7612 23.4982L20.7634 23.4979V41.5018ZM32.1661 41.5021C29.7801 41.5014 27.492 40.5534 25.8046 38.8665C24.1172 37.1797 23.1685 34.8919 23.1669 32.5059C23.1654 30.1199 24.1112 27.831 25.7964 26.1419C27.4817 24.4529 29.7685 23.502 32.1545 23.4982H32.1661L32.1718 23.498C34.5578 23.501 36.845 24.4512 38.5308 26.1397C40.2167 27.8282 41.1632 30.1169 41.1624 32.5029C41.1617 34.8889 40.2137 37.1771 38.5268 38.8645C36.8399 40.5519 34.5521 41.5006 32.1661 41.5021Z" fill="black" fill-opacity="0.27"/>
</g>
<defs>
<clipPath id="clip0_191_285">
<rect width="43.7273" height="65" fill="white" transform="translate(0.100006)"/>
</clipPath>
</defs>
</svg>
