<svg width="49" height="65" viewBox="0 0 49 65" fill="none" xmlns="http://www.w3.org/2000/svg">
<path d="M15.5087 50.2478C15.5087 50.2478 13.0293 51.6896 17.2733 52.1775C22.4148 52.764 25.0425 52.6801 30.7085 51.6076C30.7085 51.6076 32.1983 52.5416 34.2785 53.3507C21.577 58.7944 5.53213 53.0353 15.5087 50.2478ZM13.9566 43.144C13.9566 43.144 11.1757 45.2026 15.4228 45.6418C20.9151 46.2084 25.2525 46.2548 32.7579 44.8096C32.7579 44.8096 33.796 45.862 35.4284 46.4376C20.0713 50.9282 2.96632 46.7917 13.9566 43.144Z" fill="white"/>
<path d="M15.5087 50.2478C15.5087 50.2478 13.0293 51.6896 17.2733 52.1775C22.4148 52.764 25.0425 52.6801 30.7085 51.6076C30.7085 51.6076 32.1983 52.5416 34.2785 53.3507C21.577 58.7944 5.53213 53.0353 15.5087 50.2478ZM13.9566 43.144C13.9566 43.144 11.1757 45.2026 15.4228 45.6418C20.9151 46.2084 25.2525 46.2548 32.7579 44.8096C32.7579 44.8096 33.796 45.862 35.4284 46.4376C20.0713 50.9282 2.96632 46.7917 13.9566 43.144Z" fill="black" fill-opacity="0.2"/>
<path d="M27.0411 31.0939C30.1709 34.697 26.2189 37.9395 26.2189 37.9395C26.2189 37.9395 34.1656 33.8372 30.516 28.6999C27.1075 23.9095 24.4934 21.5289 38.6444 13.322C38.6444 13.322 16.4321 18.8697 27.0411 31.0939Z" fill="black" fill-opacity="0.2"/>
<path d="M43.84 55.5021C43.84 55.5021 45.6749 57.0138 41.8192 58.1835C34.4878 60.4045 11.3045 61.0752 4.86428 58.2719C2.54927 57.265 6.89074 55.8673 8.25631 55.5739C9.68048 55.265 10.4945 55.3227 10.4945 55.3227C7.91985 53.5089 -6.14683 58.884 3.34937 60.4231C29.2466 64.623 50.5574 58.5321 43.84 55.5021ZM16.7009 35.7838C16.7009 35.7838 4.90862 38.5848 12.5251 39.6017C15.7409 40.0323 22.1517 39.935 28.1232 39.4345C33.0035 39.0231 37.9038 38.1477 37.9038 38.1477C37.9038 38.1477 36.183 38.8847 34.9381 39.7347C22.963 42.8842 -0.170588 41.4191 6.48928 38.1975C12.1216 35.475 16.7009 35.7838 16.7009 35.7838ZM37.8552 47.6082C50.0286 41.2825 44.4001 35.2037 40.4715 36.0228C39.5085 36.223 39.0793 36.3966 39.0793 36.3966C39.0793 36.3966 39.4368 35.8368 40.1195 35.5945C47.8913 32.862 53.8685 43.6531 37.6106 47.927C37.6106 47.9272 37.799 47.7588 37.8552 47.6082Z" fill="white"/>
<path d="M43.84 55.5021C43.84 55.5021 45.6749 57.0138 41.8192 58.1835C34.4878 60.4045 11.3045 61.0752 4.86428 58.2719C2.54927 57.265 6.89074 55.8673 8.25631 55.5739C9.68048 55.265 10.4945 55.3227 10.4945 55.3227C7.91985 53.5089 -6.14683 58.884 3.34937 60.4231C29.2466 64.623 50.5574 58.5321 43.84 55.5021ZM16.7009 35.7838C16.7009 35.7838 4.90862 38.5848 12.5251 39.6017C15.7409 40.0323 22.1517 39.935 28.1232 39.4345C33.0035 39.0231 37.9038 38.1477 37.9038 38.1477C37.9038 38.1477 36.183 38.8847 34.9381 39.7347C22.963 42.8842 -0.170588 41.4191 6.48928 38.1975C12.1216 35.475 16.7009 35.7838 16.7009 35.7838ZM37.8552 47.6082C50.0286 41.2825 44.4001 35.2037 40.4715 36.0228C39.5085 36.223 39.0793 36.3966 39.0793 36.3966C39.0793 36.3966 39.4368 35.8368 40.1195 35.5945C47.8913 32.862 53.8685 43.6531 37.6106 47.927C37.6106 47.9272 37.799 47.7588 37.8552 47.6082Z" fill="black" fill-opacity="0.2"/>
<path d="M30.516 0.0696993C30.516 0.0696993 37.2578 6.81392 24.1218 17.184C13.5882 25.5029 21.7198 30.246 24.1174 35.6653C17.9687 30.1177 13.4563 25.2341 16.4837 20.689C20.9268 14.0167 33.236 10.7821 30.516 0.0696993Z" fill="black" fill-opacity="0.2"/>
<path d="M17.8972 64.7492C29.582 65.4973 47.5252 64.3342 47.9501 58.8053C47.9501 58.8053 47.1333 60.9014 38.2933 62.5659C28.3201 64.4426 16.0197 64.2236 8.72409 63.0207C8.72428 63.0207 10.2174 64.2568 17.8972 64.7492Z" fill="white"/>
<path d="M17.8972 64.7492C29.582 65.4973 47.5252 64.3342 47.9501 58.8053C47.9501 58.8053 47.1333 60.9014 38.2933 62.5659C28.3201 64.4426 16.0197 64.2236 8.72409 63.0207C8.72428 63.0207 10.2174 64.2568 17.8972 64.7492Z" fill="black" fill-opacity="0.2"/>
</svg>
