<svg width="58" height="65" viewBox="0 0 58 65" fill="none" xmlns="http://www.w3.org/2000/svg">
<g clip-path="url(#clip0_191_276)">
<path d="M29 64.8794C28.0994 64.8794 27.2588 64.641 26.4783 64.2237L18.4928 59.515C17.2919 58.8593 17.8923 58.6209 18.2526 58.5017C19.8737 57.9653 20.1739 57.8461 21.8551 56.8924C22.0352 56.7732 22.2754 56.8328 22.4555 56.952L28.5797 60.5879C28.8199 60.7071 29.1201 60.7071 29.3002 60.5879L53.2567 46.8193C53.4969 46.7001 53.617 46.4616 53.617 46.1636V18.686C53.617 18.388 53.4969 18.1495 53.2567 18.0303L29.3002 4.32132C29.06 4.20211 28.7598 4.20211 28.5797 4.32132L4.62319 18.0303C4.38302 18.1495 4.26294 18.4476 4.26294 18.686V46.1636C4.26294 46.402 4.38302 46.7001 4.62319 46.8193L11.1677 50.5743C14.7101 52.3625 16.9317 50.2763 16.9317 48.1902V21.0702C16.9317 20.7125 17.2319 20.3549 17.6522 20.3549H20.7143C21.0745 20.3549 21.4348 20.6529 21.4348 21.0702V48.1902C21.4348 52.8989 18.853 55.6407 14.3499 55.6407C12.9689 55.6407 11.8882 55.6407 8.82609 54.1506L2.52174 50.5743C0.960663 49.6803 0 48.0113 0 46.2232V18.7456C0 16.9575 0.960663 15.2885 2.52174 14.3945L26.4783 0.625846C27.9793 -0.208615 30.0207 -0.208615 31.5217 0.625846L55.4783 14.3945C57.0393 15.2885 58 16.9575 58 18.7456V46.2232C58 48.0113 57.0393 49.6803 55.4783 50.5743L31.5217 64.343C30.7412 64.7006 29.8406 64.8794 29 64.8794ZM36.3851 45.9848C25.8778 45.9848 23.7164 41.2164 23.7164 37.1633C23.7164 36.8057 24.0166 36.4481 24.4369 36.4481H27.559C27.9193 36.4481 28.2195 36.6865 28.2195 37.0441C28.6998 40.2032 30.0807 41.7529 36.4451 41.7529C41.4886 41.7529 43.6501 40.6204 43.6501 37.9382C43.6501 36.3885 43.0497 35.256 35.1843 34.4811C28.6398 33.8255 24.5569 32.395 24.5569 27.2094C24.5569 22.3815 28.6398 19.5204 35.4845 19.5204C43.1698 19.5204 46.9524 22.143 47.4327 27.8651C47.4327 28.0439 47.3727 28.2227 47.2526 28.4015C47.1325 28.5207 46.9524 28.6399 46.7723 28.6399H43.6501C43.3499 28.6399 43.0497 28.4015 42.9896 28.1035C42.2691 24.8252 40.4079 23.7524 35.4845 23.7524C29.9607 23.7524 29.3002 25.6597 29.3002 27.0902C29.3002 28.8187 30.0807 29.3552 37.5259 30.3088C44.911 31.2625 48.3934 32.6334 48.3934 37.7594C48.3333 43.0046 44.0103 45.9848 36.3851 45.9848Z" fill="white"/>
<path d="M29 64.8794C28.0994 64.8794 27.2588 64.641 26.4783 64.2237L18.4928 59.515C17.2919 58.8593 17.8923 58.6209 18.2526 58.5017C19.8737 57.9653 20.1739 57.8461 21.8551 56.8924C22.0352 56.7732 22.2754 56.8328 22.4555 56.952L28.5797 60.5879C28.8199 60.7071 29.1201 60.7071 29.3002 60.5879L53.2567 46.8193C53.4969 46.7001 53.617 46.4616 53.617 46.1636V18.686C53.617 18.388 53.4969 18.1495 53.2567 18.0303L29.3002 4.32132C29.06 4.20211 28.7598 4.20211 28.5797 4.32132L4.62319 18.0303C4.38302 18.1495 4.26294 18.4476 4.26294 18.686V46.1636C4.26294 46.402 4.38302 46.7001 4.62319 46.8193L11.1677 50.5743C14.7101 52.3625 16.9317 50.2763 16.9317 48.1902V21.0702C16.9317 20.7125 17.2319 20.3549 17.6522 20.3549H20.7143C21.0745 20.3549 21.4348 20.6529 21.4348 21.0702V48.1902C21.4348 52.8989 18.853 55.6407 14.3499 55.6407C12.9689 55.6407 11.8882 55.6407 8.82609 54.1506L2.52174 50.5743C0.960663 49.6803 0 48.0113 0 46.2232V18.7456C0 16.9575 0.960663 15.2885 2.52174 14.3945L26.4783 0.625846C27.9793 -0.208615 30.0207 -0.208615 31.5217 0.625846L55.4783 14.3945C57.0393 15.2885 58 16.9575 58 18.7456V46.2232C58 48.0113 57.0393 49.6803 55.4783 50.5743L31.5217 64.343C30.7412 64.7006 29.8406 64.8794 29 64.8794ZM36.3851 45.9848C25.8778 45.9848 23.7164 41.2164 23.7164 37.1633C23.7164 36.8057 24.0166 36.4481 24.4369 36.4481H27.559C27.9193 36.4481 28.2195 36.6865 28.2195 37.0441C28.6998 40.2032 30.0807 41.7529 36.4451 41.7529C41.4886 41.7529 43.6501 40.6204 43.6501 37.9382C43.6501 36.3885 43.0497 35.256 35.1843 34.4811C28.6398 33.8255 24.5569 32.395 24.5569 27.2094C24.5569 22.3815 28.6398 19.5204 35.4845 19.5204C43.1698 19.5204 46.9524 22.143 47.4327 27.8651C47.4327 28.0439 47.3727 28.2227 47.2526 28.4015C47.1325 28.5207 46.9524 28.6399 46.7723 28.6399H43.6501C43.3499 28.6399 43.0497 28.4015 42.9896 28.1035C42.2691 24.8252 40.4079 23.7524 35.4845 23.7524C29.9607 23.7524 29.3002 25.6597 29.3002 27.0902C29.3002 28.8187 30.0807 29.3552 37.5259 30.3088C44.911 31.2625 48.3934 32.6334 48.3934 37.7594C48.3333 43.0046 44.0103 45.9848 36.3851 45.9848Z" fill="black" fill-opacity="0.27"/>
</g>
<defs>
<clipPath id="clip0_191_276">
<rect width="58" height="65" fill="white"/>
</clipPath>
</defs>
</svg>
