<svg width="72" height="65" viewBox="0 0 72 65" fill="none" xmlns="http://www.w3.org/2000/svg">
<mask id="mask0_191_258" style="mask-type:luminance" maskUnits="userSpaceOnUse" x="0" y="0" width="72" height="65">
<path d="M72 0H0V64.659H72V0Z" fill="white"/>
</mask>
<g mask="url(#mask0_191_258)">
<path d="M40.6332 31.8058C40.6332 34.0953 38.7994 35.9194 36.5763 35.9194C34.3532 35.9194 32.5194 34.0953 32.5194 31.8058C32.5194 29.5165 34.3532 27.6924 36.5763 27.6924C38.7994 27.6924 40.6332 29.5165 40.6332 31.8058Z" fill="white"/>
<path d="M40.6332 31.8058C40.6332 34.0953 38.7994 35.9194 36.5763 35.9194C34.3532 35.9194 32.5194 34.0953 32.5194 31.8058C32.5194 29.5165 34.3532 27.6924 36.5763 27.6924C38.7994 27.6924 40.6332 29.5165 40.6332 31.8058Z" fill="black" fill-opacity="0.27"/>
<path d="M40.6332 31.8058C40.6332 34.0953 38.7994 35.9194 36.5763 35.9194C34.3532 35.9194 32.5194 34.0953 32.5194 31.8058C32.5194 29.5165 34.3532 27.6924 36.5763 27.6924C38.7994 27.6924 40.6332 29.5165 40.6332 31.8058Z" stroke="white" stroke-width="4"/>
<path d="M40.6332 31.8058C40.6332 34.0953 38.7994 35.9194 36.5763 35.9194C34.3532 35.9194 32.5194 34.0953 32.5194 31.8058C32.5194 29.5165 34.3532 27.6924 36.5763 27.6924C38.7994 27.6924 40.6332 29.5165 40.6332 31.8058Z" stroke="black" stroke-opacity="0.27" stroke-width="4"/>
<path d="M36.5759 44.3314C54.5252 44.3314 69.0762 38.7236 69.0762 31.8061C69.0762 24.8886 54.5252 19.2808 36.5759 19.2808C18.6264 19.2808 4.0755 24.8886 4.0755 31.8061C4.0755 38.7236 18.6264 44.3314 36.5759 44.3314Z" stroke="white" stroke-width="4"/>
<path d="M36.5759 44.3314C54.5252 44.3314 69.0762 38.7236 69.0762 31.8061C69.0762 24.8886 54.5252 19.2808 36.5759 19.2808C18.6264 19.2808 4.0755 24.8886 4.0755 31.8061C4.0755 38.7236 18.6264 44.3314 36.5759 44.3314Z" stroke="black" stroke-opacity="0.27" stroke-width="4"/>
<path d="M25.8287 38.0688C34.8036 53.7591 46.8905 63.6744 52.8256 60.2156C58.7608 56.7569 56.297 41.2338 47.3221 25.5436C38.3473 9.85349 26.2605 -0.0619782 20.3253 3.3968C14.39 6.85558 16.854 22.3788 25.8287 38.0688Z" stroke="white" stroke-width="4"/>
<path d="M25.8287 38.0688C34.8036 53.7591 46.8905 63.6744 52.8256 60.2156C58.7608 56.7569 56.297 41.2338 47.3221 25.5436C38.3473 9.85349 26.2605 -0.0619782 20.3253 3.3968C14.39 6.85558 16.854 22.3788 25.8287 38.0688Z" stroke="black" stroke-opacity="0.27" stroke-width="4"/>
<path d="M25.8287 25.5434C16.854 41.2335 14.39 56.7569 20.3253 60.2156C26.2605 63.6744 38.3473 53.7588 47.3221 38.0688C56.297 22.3787 58.7608 6.85542 52.8256 3.39664C46.8905 -0.0621304 34.8036 9.85333 25.8287 25.5434Z" stroke="white" stroke-width="4"/>
<path d="M25.8287 25.5434C16.854 41.2335 14.39 56.7569 20.3253 60.2156C26.2605 63.6744 38.3473 53.7588 47.3221 38.0688C56.297 22.3787 58.7608 6.85542 52.8256 3.39664C46.8905 -0.0621304 34.8036 9.85333 25.8287 25.5434Z" stroke="black" stroke-opacity="0.27" stroke-width="4"/>
</g>
</svg>
