<svg width="53" height="48" viewBox="0 0 53 48" fill="none" xmlns="http://www.w3.org/2000/svg">
<mask id="mask0_190_52" style="mask-type:luminance" maskUnits="userSpaceOnUse" x="0" y="0" width="53" height="48">
<path d="M53 0H0V47.7482H53V0Z" fill="white"/>
</mask>
<g mask="url(#mask0_190_52)">
<path d="M29.8827 23.4873C29.8827 25.17 28.5405 26.5019 26.9241 26.5019C25.3077 26.5019 23.9656 25.17 23.9656 23.4873C23.9656 21.8048 25.3077 20.4728 26.9241 20.4728C28.5405 20.4728 29.8827 21.8048 29.8827 23.4873Z" fill="white"/>
<path d="M29.8827 23.4873C29.8827 25.17 28.5405 26.5019 26.9241 26.5019C25.3077 26.5019 23.9656 25.17 23.9656 23.4873C23.9656 21.8048 25.3077 20.4728 26.9241 20.4728C28.5405 20.4728 29.8827 21.8048 29.8827 23.4873Z" fill="black" fill-opacity="0.3"/>
<path d="M29.8827 23.4873C29.8827 25.17 28.5405 26.5019 26.9241 26.5019C25.3077 26.5019 23.9656 25.17 23.9656 23.4873C23.9656 21.8048 25.3077 20.4728 26.9241 20.4728C28.5405 20.4728 29.8827 21.8048 29.8827 23.4873Z" stroke="white" stroke-width="3"/>
<path d="M29.8827 23.4873C29.8827 25.17 28.5405 26.5019 26.9241 26.5019C25.3077 26.5019 23.9656 25.17 23.9656 23.4873C23.9656 21.8048 25.3077 20.4728 26.9241 20.4728C28.5405 20.4728 29.8827 21.8048 29.8827 23.4873Z" stroke="black" stroke-opacity="0.3" stroke-width="3"/>
<path d="M26.9239 32.737C40.1366 32.737 50.8478 28.5959 50.8478 23.4875C50.8478 18.3793 40.1366 14.2382 26.9239 14.2382C13.7111 14.2382 3 18.3793 3 23.4875C3 28.5959 13.7111 32.737 26.9239 32.737Z" stroke="white" stroke-width="3"/>
<path d="M26.9239 32.737C40.1366 32.737 50.8478 28.5959 50.8478 23.4875C50.8478 18.3793 40.1366 14.2382 26.9239 14.2382C13.7111 14.2382 3 18.3793 3 23.4875C3 28.5959 13.7111 32.737 26.9239 32.737Z" stroke="black" stroke-opacity="0.3" stroke-width="3"/>
<path d="M19.0127 28.1123C25.6192 39.699 34.5165 47.0211 38.8855 44.4669C43.2544 41.9127 41.4407 30.4496 34.8343 18.863C28.2278 7.2764 19.3306 -0.0457835 14.9616 2.50839C10.5926 5.06257 12.4064 16.5259 19.0127 28.1123Z" stroke="white" stroke-width="3"/>
<path d="M19.0127 28.1123C25.6192 39.699 34.5165 47.0211 38.8855 44.4669C43.2544 41.9127 41.4407 30.4496 34.8343 18.863C28.2278 7.2764 19.3306 -0.0457835 14.9616 2.50839C10.5926 5.06257 12.4064 16.5259 19.0127 28.1123Z" stroke="black" stroke-opacity="0.3" stroke-width="3"/>
<path d="M19.0127 18.8628C12.4064 30.4493 10.5926 41.9127 14.9616 44.4669C19.3306 47.0211 28.2278 39.6988 34.8343 28.1123C41.4407 16.5258 43.2544 5.06244 38.8855 2.50827C34.5165 -0.0459054 25.6192 7.27628 19.0127 18.8628Z" stroke="white" stroke-width="3"/>
<path d="M19.0127 18.8628C12.4064 30.4493 10.5926 41.9127 14.9616 44.4669C19.3306 47.0211 28.2278 39.6988 34.8343 28.1123C41.4407 16.5258 43.2544 5.06244 38.8855 2.50827C34.5165 -0.0459054 25.6192 7.27628 19.0127 18.8628Z" stroke="black" stroke-opacity="0.3" stroke-width="3"/>
</g>
</svg>
