<svg width="87" height="65" viewBox="0 0 87 65" fill="none" xmlns="http://www.w3.org/2000/svg">
<g clip-path="url(#clip0_191_267)">
<path d="M74.8664 37.3601C71.833 37.3759 69.1967 38.1041 66.9891 39.1806C66.1792 37.5817 65.3692 36.157 65.2262 35.1122C65.0674 33.8932 64.8769 33.1492 65.0674 31.6928C65.258 30.2364 66.1156 28.1626 66.0997 28.0043C66.0839 27.846 65.9092 27.1019 64.1622 27.0861C62.4152 27.0703 60.9064 27.4185 60.7317 27.8776C60.557 28.3367 60.2235 29.3815 60.0012 30.458C59.6994 32.041 56.5072 37.6925 54.6808 40.6528C54.0932 39.4972 53.585 38.4841 53.4738 37.6767C53.315 36.4578 53.1244 35.7137 53.315 34.2573C53.5056 32.8009 54.3632 30.7271 54.3473 30.5688C54.3314 30.4105 54.1567 29.6665 52.4097 29.6506C50.6627 29.6348 49.154 29.9831 48.9793 30.4422C48.8046 30.9013 48.614 31.9777 48.2487 33.0225C47.8834 34.0674 43.643 43.5023 42.5313 45.9402C41.9595 47.1908 41.4672 48.1881 41.1178 48.8689C41.1178 48.8689 41.1019 48.9163 41.0543 48.9955C40.7525 49.5812 40.5778 49.8978 40.5778 49.8978C40.5778 49.8978 40.5778 49.8978 40.5778 49.9137C40.3396 50.3411 40.0855 50.7369 39.9585 50.7369C39.8632 50.7369 39.6885 49.5971 39.9902 48.0457C40.6255 44.7688 42.1342 39.6713 42.1184 39.4972C42.1184 39.4022 42.4042 38.5157 41.1337 38.0566C39.8949 37.5975 39.4502 38.3574 39.3391 38.3574C39.2279 38.3574 39.1485 38.6265 39.1485 38.6265C39.1485 38.6265 40.5302 32.8959 36.5121 32.8959C34.0028 32.8959 30.5406 35.6346 28.8254 38.1041C27.7454 38.6899 25.4426 39.9405 22.9809 41.286C22.0439 41.8085 21.0751 42.3309 20.1698 42.8216C20.1063 42.7583 20.0428 42.6791 19.9793 42.6158C15.1195 37.4392 6.13041 33.7824 6.51157 26.8328C6.65451 24.2999 7.528 17.6511 23.775 9.57758C37.1474 3.00793 47.7881 4.82843 49.6304 8.86521C52.2668 14.6275 43.9289 25.3289 30.1118 26.8803C24.8391 27.466 22.0756 25.4397 21.3769 24.6799C20.6463 23.8883 20.5351 23.8409 20.2651 23.9992C19.8204 24.2366 20.1063 24.949 20.2651 25.3606C20.6781 26.4371 22.3774 28.3367 25.252 29.2707C27.7931 30.0939 33.971 30.553 41.4513 27.6718C49.821 24.4424 56.3643 15.4665 54.4426 7.94704C52.5209 0.316742 39.8155 -2.20031 27.7931 2.0581C20.6463 4.59097 12.896 8.58026 7.32154 13.7727C0.698869 19.9466 -0.349323 25.3131 0.0794833 27.561C1.62001 35.5396 12.6578 40.732 17.0729 44.5788C16.8506 44.7054 16.6441 44.8163 16.4694 44.9112C14.2618 46.0035 5.84454 50.3886 3.74816 55.0269C1.3659 60.2826 4.12932 64.0503 5.95572 64.5569C11.6255 66.1241 17.4541 63.3063 20.5828 58.6521C23.7115 53.9979 23.3303 47.9507 21.8851 45.1804C21.8692 45.1487 21.8533 45.117 21.8215 45.0854C22.3933 44.7529 22.9809 44.4047 23.5526 44.0722C24.6802 43.4073 25.792 42.79 26.7449 42.2834C26.2049 43.7556 25.8078 45.5128 25.6173 48.0457C25.379 51.0218 26.6019 54.8844 28.206 56.4042C28.9207 57.069 29.7624 57.0849 30.3024 57.0849C32.1764 57.0849 33.0181 55.5335 33.9552 53.6972C35.0986 51.4492 36.131 48.8372 36.131 48.8372C36.131 48.8372 34.8445 55.8976 38.3385 55.8976C39.6091 55.8976 40.8955 54.2512 41.4672 53.4122C41.4672 53.428 41.4672 53.428 41.4672 53.428C41.4672 53.428 41.499 53.3805 41.5625 53.2697C41.6896 53.0639 41.769 52.9373 41.769 52.9373C41.769 52.9373 41.769 52.9215 41.769 52.9056C42.2772 52.0191 43.4207 50.0087 45.12 46.6684C47.3117 42.3625 49.424 36.9802 49.424 36.9802C49.424 36.9802 49.6145 38.2941 50.2657 40.4787C50.6468 41.761 51.4409 43.1699 52.0762 44.5313C51.568 45.2437 51.2503 45.6394 51.2503 45.6394C51.2503 45.6394 51.2503 45.6394 51.2662 45.6553C50.8533 46.1935 50.4086 46.7792 49.9163 47.3491C48.1852 49.4071 46.1206 51.7658 45.8347 52.4465C45.5012 53.2539 45.5806 53.8396 46.2158 54.3145C46.6764 54.6628 47.5023 54.7103 48.344 54.6628C49.9004 54.552 50.9962 54.1721 51.5362 53.9346C52.3779 53.6338 53.3626 53.1748 54.2838 52.494C55.9831 51.2434 57.0154 49.4546 56.9201 47.0958C56.8725 45.7977 56.4437 44.4996 55.9196 43.2807C56.0784 43.0591 56.2213 42.8374 56.3801 42.6158C59.0641 38.7057 61.1446 34.4156 61.1446 34.4156C61.1446 34.4156 61.3352 35.7296 61.9864 37.9142C62.304 39.0223 62.9552 40.2254 63.5269 41.3969C61.0017 43.439 59.4453 45.8136 58.8894 47.365C57.8889 50.2461 58.6671 51.5442 60.1441 51.845C60.8111 51.9875 61.764 51.6709 62.4628 51.3701C63.3522 51.0851 64.4004 50.5944 65.4009 49.8662C67.1003 48.6156 68.7361 46.8742 68.6408 44.5155C68.5932 43.439 68.3073 42.3784 67.9103 41.3494C70.0543 40.4629 72.8177 39.9721 76.3434 40.3837C83.9031 41.2702 85.396 45.9719 85.1102 47.9507C84.8243 49.9295 83.2361 51.006 82.712 51.3384C82.1879 51.6709 82.0132 51.7817 82.0609 52.0191C82.1244 52.3674 82.3785 52.3516 82.8232 52.2882C83.4426 52.1774 86.7936 50.6894 86.9366 47.0484C87.1748 42.3942 82.7279 37.3126 74.8664 37.3601ZM16.5488 56.9582C14.0395 59.6811 10.5455 60.7101 9.03677 59.8394C7.41683 58.9054 8.0521 54.8844 11.1332 52.0033C13.0072 50.2461 15.4212 48.6156 17.0253 47.6182C17.3905 47.3966 17.9305 47.08 18.5817 46.6842C18.6928 46.6209 18.7564 46.5893 18.7564 46.5893C18.8834 46.5101 19.0105 46.431 19.1375 46.3518C20.2651 50.4677 19.1852 54.0929 16.5488 56.9582ZM34.8128 44.5788C33.9393 46.7001 32.1129 52.1299 31.0012 51.8292C30.0483 51.5759 29.4606 47.4599 30.8106 43.3915C31.4935 41.3494 32.9387 38.9115 33.7805 37.9617C35.1463 36.4419 36.6551 35.9353 37.0203 36.5527C37.4809 37.3601 35.3528 43.249 34.8128 44.5788ZM49.8845 51.7658C49.5192 51.9558 49.1698 52.0824 49.011 51.9875C48.8999 51.9241 49.1698 51.6709 49.1698 51.6709C49.1698 51.6709 51.0598 49.6446 51.8062 48.7264C52.235 48.1881 52.7432 47.5549 53.2832 46.8426C53.2832 46.9059 53.2832 46.985 53.2832 47.0484C53.2832 49.4704 50.9327 51.101 49.8845 51.7658ZM61.5099 49.1221C61.2399 48.9322 61.2876 48.299 62.1928 46.3201C62.5422 45.5445 63.3681 44.2464 64.7816 42.9957C64.9404 43.5023 65.0516 43.9931 65.0357 44.4521C65.0198 47.5074 62.8281 48.6472 61.5099 49.1221Z" fill="white"/>
<path d="M74.8664 37.3601C71.833 37.3759 69.1967 38.1041 66.9891 39.1806C66.1792 37.5817 65.3692 36.157 65.2262 35.1122C65.0674 33.8932 64.8769 33.1492 65.0674 31.6928C65.258 30.2364 66.1156 28.1626 66.0997 28.0043C66.0839 27.846 65.9092 27.1019 64.1622 27.0861C62.4152 27.0703 60.9064 27.4185 60.7317 27.8776C60.557 28.3367 60.2235 29.3815 60.0012 30.458C59.6994 32.041 56.5072 37.6925 54.6808 40.6528C54.0932 39.4972 53.585 38.4841 53.4738 37.6767C53.315 36.4578 53.1244 35.7137 53.315 34.2573C53.5056 32.8009 54.3632 30.7271 54.3473 30.5688C54.3314 30.4105 54.1567 29.6665 52.4097 29.6506C50.6627 29.6348 49.154 29.9831 48.9793 30.4422C48.8046 30.9013 48.614 31.9777 48.2487 33.0225C47.8834 34.0674 43.643 43.5023 42.5313 45.9402C41.9595 47.1908 41.4672 48.1881 41.1178 48.8689C41.1178 48.8689 41.1019 48.9163 41.0543 48.9955C40.7525 49.5812 40.5778 49.8978 40.5778 49.8978C40.5778 49.8978 40.5778 49.8978 40.5778 49.9137C40.3396 50.3411 40.0855 50.7369 39.9585 50.7369C39.8632 50.7369 39.6885 49.5971 39.9902 48.0457C40.6255 44.7688 42.1342 39.6713 42.1184 39.4972C42.1184 39.4022 42.4042 38.5157 41.1337 38.0566C39.8949 37.5975 39.4502 38.3574 39.3391 38.3574C39.2279 38.3574 39.1485 38.6265 39.1485 38.6265C39.1485 38.6265 40.5302 32.8959 36.5121 32.8959C34.0028 32.8959 30.5406 35.6346 28.8254 38.1041C27.7454 38.6899 25.4426 39.9405 22.9809 41.286C22.0439 41.8085 21.0751 42.3309 20.1698 42.8216C20.1063 42.7583 20.0428 42.6791 19.9793 42.6158C15.1195 37.4392 6.13041 33.7824 6.51157 26.8328C6.65451 24.2999 7.528 17.6511 23.775 9.57758C37.1474 3.00793 47.7881 4.82843 49.6304 8.86521C52.2668 14.6275 43.9289 25.3289 30.1118 26.8803C24.8391 27.466 22.0756 25.4397 21.3769 24.6799C20.6463 23.8883 20.5351 23.8409 20.2651 23.9992C19.8204 24.2366 20.1063 24.949 20.2651 25.3606C20.6781 26.4371 22.3774 28.3367 25.252 29.2707C27.7931 30.0939 33.971 30.553 41.4513 27.6718C49.821 24.4424 56.3643 15.4665 54.4426 7.94704C52.5209 0.316742 39.8155 -2.20031 27.7931 2.0581C20.6463 4.59097 12.896 8.58026 7.32154 13.7727C0.698869 19.9466 -0.349323 25.3131 0.0794833 27.561C1.62001 35.5396 12.6578 40.732 17.0729 44.5788C16.8506 44.7054 16.6441 44.8163 16.4694 44.9112C14.2618 46.0035 5.84454 50.3886 3.74816 55.0269C1.3659 60.2826 4.12932 64.0503 5.95572 64.5569C11.6255 66.1241 17.4541 63.3063 20.5828 58.6521C23.7115 53.9979 23.3303 47.9507 21.8851 45.1804C21.8692 45.1487 21.8533 45.117 21.8215 45.0854C22.3933 44.7529 22.9809 44.4047 23.5526 44.0722C24.6802 43.4073 25.792 42.79 26.7449 42.2834C26.2049 43.7556 25.8078 45.5128 25.6173 48.0457C25.379 51.0218 26.6019 54.8844 28.206 56.4042C28.9207 57.069 29.7624 57.0849 30.3024 57.0849C32.1764 57.0849 33.0181 55.5335 33.9552 53.6972C35.0986 51.4492 36.131 48.8372 36.131 48.8372C36.131 48.8372 34.8445 55.8976 38.3385 55.8976C39.6091 55.8976 40.8955 54.2512 41.4672 53.4122C41.4672 53.428 41.4672 53.428 41.4672 53.428C41.4672 53.428 41.499 53.3805 41.5625 53.2697C41.6896 53.0639 41.769 52.9373 41.769 52.9373C41.769 52.9373 41.769 52.9215 41.769 52.9056C42.2772 52.0191 43.4207 50.0087 45.12 46.6684C47.3117 42.3625 49.424 36.9802 49.424 36.9802C49.424 36.9802 49.6145 38.2941 50.2657 40.4787C50.6468 41.761 51.4409 43.1699 52.0762 44.5313C51.568 45.2437 51.2503 45.6394 51.2503 45.6394C51.2503 45.6394 51.2503 45.6394 51.2662 45.6553C50.8533 46.1935 50.4086 46.7792 49.9163 47.3491C48.1852 49.4071 46.1206 51.7658 45.8347 52.4465C45.5012 53.2539 45.5806 53.8396 46.2158 54.3145C46.6764 54.6628 47.5023 54.7103 48.344 54.6628C49.9004 54.552 50.9962 54.1721 51.5362 53.9346C52.3779 53.6338 53.3626 53.1748 54.2838 52.494C55.9831 51.2434 57.0154 49.4546 56.9201 47.0958C56.8725 45.7977 56.4437 44.4996 55.9196 43.2807C56.0784 43.0591 56.2213 42.8374 56.3801 42.6158C59.0641 38.7057 61.1446 34.4156 61.1446 34.4156C61.1446 34.4156 61.3352 35.7296 61.9864 37.9142C62.304 39.0223 62.9552 40.2254 63.5269 41.3969C61.0017 43.439 59.4453 45.8136 58.8894 47.365C57.8889 50.2461 58.6671 51.5442 60.1441 51.845C60.8111 51.9875 61.764 51.6709 62.4628 51.3701C63.3522 51.0851 64.4004 50.5944 65.4009 49.8662C67.1003 48.6156 68.7361 46.8742 68.6408 44.5155C68.5932 43.439 68.3073 42.3784 67.9103 41.3494C70.0543 40.4629 72.8177 39.9721 76.3434 40.3837C83.9031 41.2702 85.396 45.9719 85.1102 47.9507C84.8243 49.9295 83.2361 51.006 82.712 51.3384C82.1879 51.6709 82.0132 51.7817 82.0609 52.0191C82.1244 52.3674 82.3785 52.3516 82.8232 52.2882C83.4426 52.1774 86.7936 50.6894 86.9366 47.0484C87.1748 42.3942 82.7279 37.3126 74.8664 37.3601ZM16.5488 56.9582C14.0395 59.6811 10.5455 60.7101 9.03677 59.8394C7.41683 58.9054 8.0521 54.8844 11.1332 52.0033C13.0072 50.2461 15.4212 48.6156 17.0253 47.6182C17.3905 47.3966 17.9305 47.08 18.5817 46.6842C18.6928 46.6209 18.7564 46.5893 18.7564 46.5893C18.8834 46.5101 19.0105 46.431 19.1375 46.3518C20.2651 50.4677 19.1852 54.0929 16.5488 56.9582ZM34.8128 44.5788C33.9393 46.7001 32.1129 52.1299 31.0012 51.8292C30.0483 51.5759 29.4606 47.4599 30.8106 43.3915C31.4935 41.3494 32.9387 38.9115 33.7805 37.9617C35.1463 36.4419 36.6551 35.9353 37.0203 36.5527C37.4809 37.3601 35.3528 43.249 34.8128 44.5788ZM49.8845 51.7658C49.5192 51.9558 49.1698 52.0824 49.011 51.9875C48.8999 51.9241 49.1698 51.6709 49.1698 51.6709C49.1698 51.6709 51.0598 49.6446 51.8062 48.7264C52.235 48.1881 52.7432 47.5549 53.2832 46.8426C53.2832 46.9059 53.2832 46.985 53.2832 47.0484C53.2832 49.4704 50.9327 51.101 49.8845 51.7658ZM61.5099 49.1221C61.2399 48.9322 61.2876 48.299 62.1928 46.3201C62.5422 45.5445 63.3681 44.2464 64.7816 42.9957C64.9404 43.5023 65.0516 43.9931 65.0357 44.4521C65.0198 47.5074 62.8281 48.6472 61.5099 49.1221Z" fill="black" fill-opacity="0.27"/>
</g>
<defs>
<clipPath id="clip0_191_267">
<rect width="87" height="65" fill="white"/>
</clipPath>
</defs>
</svg>
