<svg width="54" height="53" viewBox="0 0 54 53" fill="none" xmlns="http://www.w3.org/2000/svg">
<g clip-path="url(#clip0_46_20)">
<path d="M18.7775 51.6674L18.8481 51.691L18.9214 51.7038C19.765 51.8514 20.5281 51.6948 21.0849 51.2017C21.618 50.7296 21.8125 50.0789 21.8125 49.5312C21.8125 49.3197 21.8086 48.9387 21.8037 48.4487C21.8015 48.2367 21.7992 48.0042 21.7968 47.7562C21.789 46.9293 21.7812 45.9173 21.7812 44.875V43.6741L20.6002 43.8915C17.6014 44.4435 15.8835 44.0469 14.8993 43.495C13.9265 42.9495 13.5179 42.1669 13.3172 41.6025L13.312 41.5877L13.3062 41.5731C13.1338 41.1324 12.7221 40.3356 12.2222 39.5756C11.9689 39.1903 11.6793 38.7935 11.3703 38.4445C11.2645 38.325 11.1509 38.2048 11.0304 38.0893C11.2349 38.2044 11.4326 38.3447 11.6228 38.5043C12.1681 38.9619 12.5699 39.5127 12.7717 39.834C14.0634 41.9983 15.8104 42.8502 17.4787 43.0036C19.0837 43.1512 20.5265 42.6477 21.3215 42.2847L21.8237 42.0555L21.8973 41.5084C22.0886 40.0876 22.647 39.2286 23.1562 38.7859L24.8744 37.2917L22.6117 37.0375C19.8901 36.7317 17.2898 36.065 15.3714 34.4466C13.5007 32.8685 12.125 30.2506 12.125 25.6875C12.125 23.226 12.9952 21.214 14.4268 19.6421L14.8486 19.179L14.616 18.5974C14.4343 18.1431 13.7182 16.1117 14.6541 13.294C14.8363 13.3044 15.0755 13.3326 15.3741 13.3961C16.3423 13.6019 17.9434 14.1802 20.2541 15.7358L20.6379 15.9942L21.0832 15.8689C22.9906 15.3325 25.0242 15.0625 27.0625 15.0625C29.1008 15.0625 31.1344 15.3325 33.0418 15.8689L33.4898 15.9949L33.8747 15.7333C36.1844 14.1632 37.7832 13.5867 38.7476 13.3851C39.0475 13.3224 39.2869 13.2957 39.4685 13.2868C40.408 16.1083 39.6909 18.1427 39.509 18.5974L39.2764 19.179L39.6982 19.6421C41.1309 21.2153 42 23.1964 42 25.6875C42 30.2655 40.617 32.8822 38.7402 34.4565C36.8144 36.0718 34.2062 36.7314 31.4821 37.0375L29.2061 37.2932L30.9408 38.7887C31.5777 39.3377 32.2812 40.5318 32.2812 42.6562C32.2812 44.3251 32.2735 45.8305 32.2656 47.0247C32.2631 47.4169 32.2605 47.7765 32.2582 48.0977C32.2535 48.7511 32.25 49.2455 32.25 49.5312C32.25 50.0743 32.4414 50.7309 32.9717 51.2081C33.5336 51.7139 34.3088 51.8705 35.1649 51.6993L35.2278 51.6868L35.2885 51.6662C40.45 49.9243 44.9351 46.6074 48.1124 42.1825C51.2897 37.7576 52.9991 32.4476 53 27.0002V27C53 12.6352 41.3648 1 27 1C12.6352 1 1 12.6352 1 27C1 38.5065 8.44471 48.2232 18.7775 51.6674Z" stroke="black" stroke-width="2"/>
<path d="M18.7775 51.6674L18.8481 51.691L18.9214 51.7038C19.765 51.8514 20.5281 51.6948 21.0849 51.2017C21.618 50.7296 21.8125 50.0789 21.8125 49.5312C21.8125 49.3197 21.8086 48.9387 21.8037 48.4487C21.8015 48.2367 21.7992 48.0042 21.7968 47.7562C21.789 46.9293 21.7812 45.9173 21.7812 44.875V43.6741L20.6002 43.8915C17.6014 44.4435 15.8835 44.0469 14.8993 43.495C13.9265 42.9495 13.5179 42.1669 13.3172 41.6025L13.312 41.5877L13.3062 41.5731C13.1338 41.1324 12.7221 40.3356 12.2222 39.5756C11.9689 39.1903 11.6793 38.7935 11.3703 38.4445C11.2645 38.325 11.1509 38.2048 11.0304 38.0893C11.2349 38.2044 11.4326 38.3447 11.6228 38.5043C12.1681 38.9619 12.5699 39.5127 12.7717 39.834C14.0634 41.9983 15.8104 42.8502 17.4787 43.0036C19.0837 43.1512 20.5265 42.6477 21.3215 42.2847L21.8237 42.0555L21.8973 41.5084C22.0886 40.0876 22.647 39.2286 23.1562 38.7859L24.8744 37.2917L22.6117 37.0375C19.8901 36.7317 17.2898 36.065 15.3714 34.4466C13.5007 32.8685 12.125 30.2506 12.125 25.6875C12.125 23.226 12.9952 21.214 14.4268 19.6421L14.8486 19.179L14.616 18.5974C14.4343 18.1431 13.7182 16.1117 14.6541 13.294C14.8363 13.3044 15.0755 13.3326 15.3741 13.3961C16.3423 13.6019 17.9434 14.1802 20.2541 15.7358L20.6379 15.9942L21.0832 15.8689C22.9906 15.3325 25.0242 15.0625 27.0625 15.0625C29.1008 15.0625 31.1344 15.3325 33.0418 15.8689L33.4898 15.9949L33.8747 15.7333C36.1844 14.1632 37.7832 13.5867 38.7476 13.3851C39.0475 13.3224 39.2869 13.2957 39.4685 13.2868C40.408 16.1083 39.6909 18.1427 39.509 18.5974L39.2764 19.179L39.6982 19.6421C41.1309 21.2153 42 23.1964 42 25.6875C42 30.2655 40.617 32.8822 38.7402 34.4565C36.8144 36.0718 34.2062 36.7314 31.4821 37.0375L29.2061 37.2932L30.9408 38.7887C31.5777 39.3377 32.2812 40.5318 32.2812 42.6562C32.2812 44.3251 32.2735 45.8305 32.2656 47.0247C32.2631 47.4169 32.2605 47.7765 32.2582 48.0977C32.2535 48.7511 32.25 49.2455 32.25 49.5312C32.25 50.0743 32.4414 50.7309 32.9717 51.2081C33.5336 51.7139 34.3088 51.8705 35.1649 51.6993L35.2278 51.6868L35.2885 51.6662C40.45 49.9243 44.9351 46.6074 48.1124 42.1825C51.2897 37.7576 52.9991 32.4476 53 27.0002V27C53 12.6352 41.3648 1 27 1C12.6352 1 1 12.6352 1 27C1 38.5065 8.44471 48.2232 18.7775 51.6674Z" stroke="white" stroke-opacity="0.32" stroke-width="2"/>
</g>
<defs>
<clipPath id="clip0_46_20">
<rect width="54" height="53" fill="white"/>
</clipPath>
</defs>
</svg>
