<svg width="40" height="16" viewBox="0 0 40 16" fill="none" xmlns="http://www.w3.org/2000/svg">
<g clip-path="url(#clip0_101_157)">
<path d="M3.13052 5.36632C3.05322 5.36632 3.0339 5.32786 3.07255 5.27017L3.47834 4.75094C3.51699 4.69325 3.61361 4.65479 3.6909 4.65479H10.5895C10.6667 4.65479 10.6861 4.71248 10.6474 4.77017L10.3189 5.27017C10.2803 5.32786 10.1837 5.38555 10.1257 5.38555L3.13052 5.36632Z" fill="#00ACD7"/>
<path d="M0.212549 7.13561C0.135254 7.13561 0.11593 7.09715 0.154578 7.03946L0.560375 6.52023C0.599022 6.46253 0.695641 6.42407 0.772935 6.42407H9.58453C9.66182 6.42407 9.70047 6.48176 9.68115 6.53946L9.52656 7.001C9.50724 7.07792 9.42994 7.11638 9.35265 7.11638L0.212549 7.13561Z" fill="#00ACD7"/>
<path d="M4.88882 8.9049C4.81152 8.9049 4.7922 8.84721 4.83085 8.78951L5.10138 8.30874C5.14003 8.25105 5.21732 8.19336 5.29462 8.19336H9.15935C9.23664 8.19336 9.27529 8.25105 9.27529 8.32797L9.23665 8.78951C9.23665 8.86644 9.15935 8.92413 9.10138 8.92413L4.88882 8.9049Z" fill="#00ACD7"/>
<path d="M24.9467 5.02018C23.7294 5.32787 22.8984 5.55864 21.7004 5.86633C21.4105 5.94326 21.3912 5.96249 21.14 5.67403C20.8501 5.3471 20.6376 5.13556 20.2318 4.94326C19.0144 4.3471 17.8356 4.52018 16.7342 5.23172C15.4202 6.07787 14.7438 7.32787 14.7632 8.88556C14.7825 10.424 15.8453 11.6933 17.3719 11.9048C18.6859 12.0779 19.7873 11.6163 20.6569 10.6356C20.8308 10.424 20.9854 10.1933 21.1786 9.92403C20.483 9.92403 19.6134 9.92403 17.4492 9.92403C17.0434 9.92403 16.9467 9.67403 17.082 9.3471C17.3332 8.75095 17.797 7.75095 18.0675 7.25095C18.1255 7.13556 18.2608 6.94326 18.5506 6.94326C19.5361 6.94326 23.169 6.94326 25.5844 6.94326C25.5458 7.46249 25.5458 7.98172 25.4685 8.50095C25.2559 9.88556 24.7342 11.1548 23.8839 12.2702C22.4926 14.0971 20.6762 15.2317 18.3767 15.5394C16.483 15.7894 14.7245 15.424 13.1786 14.2702C11.7487 13.1933 10.9371 11.7702 10.7245 10.0009C10.4733 7.90479 11.0917 6.02018 12.367 4.36633C13.739 2.57787 15.5554 1.44326 17.7777 1.03941C19.5941 0.712487 21.3332 0.924026 22.8984 1.98172C23.9226 2.65479 24.6569 3.57787 25.14 4.69326C25.2559 4.86633 25.1786 4.96249 24.9467 5.02018Z" fill="#00ACD7"/>
<path d="M31.3431 15.6547C29.5846 15.6162 27.9808 15.1162 26.6281 13.9624C25.488 12.9816 24.773 11.7316 24.5412 10.2509C24.1933 8.07778 24.7924 6.1547 26.1064 4.44316C27.517 2.59701 29.2175 1.63547 31.517 1.23162C33.488 0.885469 35.3431 1.07778 37.0243 2.21239C38.5508 3.25085 39.4977 4.6547 39.7489 6.50085C40.0774 9.09701 39.3238 11.2124 37.5267 13.0201C36.2513 14.3085 34.6861 15.1162 32.889 15.4816C32.3673 15.5778 31.8455 15.597 31.3431 15.6547ZM35.9421 7.88547C35.9228 7.63547 35.9228 7.44316 35.8842 7.25085C35.5363 5.34701 33.7779 4.27008 31.9421 4.69316C30.145 5.09701 28.9856 6.23162 28.5605 8.03931C28.2127 9.53931 28.947 11.0585 30.3383 11.6739C31.4011 12.1355 32.4639 12.0778 33.488 11.5585C35.0146 10.7701 35.8455 9.53931 35.9421 7.88547Z" fill="#00ACD7"/>
</g>
<defs>
<clipPath id="clip0_101_157">
<rect width="40" height="15" fill="white" transform="translate(0 0.731689)"/>
</clipPath>
</defs>
</svg>
