<svg width="21" height="21" viewBox="0 0 21 21" fill="none" xmlns="http://www.w3.org/2000/svg">
<g clip-path="url(#clip0_101_62)">
<path d="M18.1159 10.502C18.1159 6.29861 14.7035 2.88623 10.5001 2.88623C6.29666 2.88623 2.88428 6.29861 2.88428 10.502C2.88428 14.7054 6.29666 18.1178 10.5001 18.1178C14.7035 18.1178 18.1159 14.7054 18.1159 10.502Z" fill="#1C77C3"/>
<path d="M15.8859 7.34649C15.8859 6.11576 14.8865 5.11646 13.6558 5.11646C12.4251 5.11646 11.4258 6.11576 11.4258 7.34649C11.4258 8.57722 12.4251 9.57653 13.6558 9.57653C14.8865 9.57653 15.8859 8.57722 15.8859 7.34649Z" fill="#FEF3EF"/>
<path d="M20.3458 2.88434C20.3458 1.65361 19.3465 0.654297 18.1158 0.654297C16.8851 0.654297 15.8857 1.65361 15.8857 2.88434C15.8857 4.11506 16.8851 5.11437 18.1158 5.11437C19.3465 5.11437 20.3458 4.11717 20.3458 2.88434Z" fill="#1E1E1E"/>
<path d="M5.96851 13.7461H8.43628V14.3078H5.33105V9.31128H5.96851V13.7461Z" fill="white"/>
<path d="M11.3837 14.3078V13.807C11.0471 14.2804 10.7126 14.4655 10.1845 14.4655C9.48605 14.4655 9.04004 14.0826 9.04004 13.4852V10.7166H9.60807V13.2601C9.60807 13.6913 9.89629 13.9669 10.3486 13.9669C10.944 13.9669 11.329 13.4873 11.329 12.753V10.7166H11.897V14.3078H11.3837Z" fill="white"/>
<path d="M16.0731 14.4046C15.8879 14.453 15.7996 14.4656 15.6817 14.4656C15.3115 14.4656 15.1327 14.3015 15.0927 13.9375C14.6887 14.3078 14.3248 14.4656 13.8725 14.4656C13.1467 14.4656 12.6943 14.0554 12.6943 13.4032C12.6943 12.9361 12.9068 12.6142 13.3255 12.4438C13.5443 12.3555 13.6684 12.3281 14.4763 12.225C14.9286 12.1703 15.0716 12.0673 15.0716 11.8274V11.6759C15.0716 11.333 14.7834 11.1416 14.2701 11.1416C13.7357 11.1416 13.4748 11.3393 13.4265 11.779H12.85C12.8647 11.4235 12.9321 11.2173 13.0962 11.0322C13.336 10.765 13.7673 10.6135 14.289 10.6135C15.1726 10.6135 15.6397 10.9564 15.6397 11.5939V13.7061C15.6397 13.8849 15.7491 13.988 15.9489 13.988C15.9826 13.988 16.0099 13.988 16.0731 13.9733V14.4046ZM15.0716 12.5322C14.8802 12.6206 14.7561 12.6479 14.1523 12.73C13.5422 12.8183 13.2876 13.0119 13.2876 13.3885C13.2876 13.7524 13.5485 13.9649 13.9945 13.9649C14.3311 13.9649 14.6109 13.8555 14.8444 13.643C15.0148 13.4852 15.0716 13.3695 15.0716 13.176V12.5322Z" fill="white"/>
<path d="M19.275 6.02944C19.9798 7.41374 20.348 8.94532 20.348 10.5C20.348 15.9363 15.9363 20.348 10.5 20.348C5.06379 20.348 0.6521 15.9363 0.6521 10.5C0.6521 5.06379 5.06379 0.6521 10.5 0.6521C12.2483 0.6521 13.9629 1.11704 15.4692 1.99643" stroke="#808080" stroke-miterlimit="10" stroke-dasharray="2 2"/>
</g>
<defs>
<clipPath id="clip0_101_62">
<rect width="21" height="21" fill="white"/>
</clipPath>
</defs>
</svg>
