<svg width="54" height="54" viewBox="0 0 54 54" fill="none" xmlns="http://www.w3.org/2000/svg">
<g clip-path="url(#clip0_46_22)">
<path d="M36.8456 37.72L36.8429 37.7183L14.3594 36.1656L14.1369 35.1907C14.1368 35.1907 14.1366 35.1908 14.1364 35.1908C13.9919 35.2236 13.8403 35.1978 13.7149 35.1189C13.5892 35.04 13.5001 34.9144 13.4671 34.7697C13.4341 34.6251 13.4599 34.4733 13.5389 34.3477C13.6178 34.2221 13.7434 34.1329 13.8881 34.0999L13.8882 34.0999C23.2296 31.9668 31.1151 32.9075 37.4243 36.7651C37.5512 36.8429 37.6421 36.9678 37.6771 37.1124C37.7121 37.2569 37.6884 37.4093 37.6114 37.5363C37.5734 37.5986 37.5234 37.6527 37.4644 37.6957C37.4053 37.7388 37.3382 37.7698 37.267 37.7869C37.1958 37.8041 37.1219 37.8069 37.0496 37.7955C36.9773 37.784 36.9079 37.7583 36.8456 37.72ZM40.3577 29.4208L40.3587 29.4213C40.5735 29.553 40.7272 29.7646 40.786 30.0095C40.8447 30.2542 40.804 30.5121 40.6728 30.7268C40.5409 30.941 40.3293 31.0942 40.0846 31.1527C39.8397 31.2112 39.5815 31.1701 39.3669 31.0384C32.3997 26.7578 21.8776 25.5342 13.6757 28.0107C13.4469 28.0588 13.208 28.0211 13.0048 27.9043C12.7944 27.7834 12.638 27.5867 12.5676 27.3545C12.4972 27.1222 12.518 26.8718 12.6259 26.6544C12.73 26.4445 12.9075 26.2806 13.1244 26.1935C21.9378 23.5326 32.9084 24.8438 40.3577 29.4208ZM11.6775 17.7508L11.6778 17.7507C15.9479 16.4553 21.6957 15.9187 27.5315 16.3932C33.3697 16.8679 39.1976 18.3464 43.6646 20.9975L43.6648 20.9976C43.9705 21.1789 44.1916 21.4742 44.2795 21.8185C44.3674 22.1628 44.315 22.5279 44.1337 22.8336C43.9524 23.1392 43.6571 23.3603 43.3128 23.4483C42.9685 23.5362 42.6033 23.4837 42.2977 23.3024C38.0925 20.8037 32.5896 19.4718 27.2082 19.048C21.8229 18.6239 16.4466 19.1003 12.4537 20.3117C12.1141 20.4147 11.7475 20.3785 11.4346 20.2111C11.1217 20.0437 10.8881 19.7589 10.7851 19.4193C10.6822 19.0797 10.7184 18.7131 10.8858 18.4002C11.0531 18.0873 11.3379 17.8537 11.6775 17.7508ZM27 1C20.1044 1 13.4912 3.73928 8.61522 8.61522C3.73928 13.4912 1 20.1044 1 27C1 33.8956 3.73928 40.5088 8.61522 45.3848C13.4912 50.2607 20.1044 53 27 53C33.8956 53 40.5088 50.2607 45.3848 45.3848C50.2607 40.5088 53 33.8956 53 27C53 20.1044 50.2607 13.4912 45.3848 8.61522C40.5088 3.73928 33.8956 1 27 1Z" stroke="black" stroke-width="2"/>
<path d="M36.8456 37.72L36.8429 37.7183L14.3594 36.1656L14.1369 35.1907C14.1368 35.1907 14.1366 35.1908 14.1364 35.1908C13.9919 35.2236 13.8403 35.1978 13.7149 35.1189C13.5892 35.04 13.5001 34.9144 13.4671 34.7697C13.4341 34.6251 13.4599 34.4733 13.5389 34.3477C13.6178 34.2221 13.7434 34.1329 13.8881 34.0999L13.8882 34.0999C23.2296 31.9668 31.1151 32.9075 37.4243 36.7651C37.5512 36.8429 37.6421 36.9678 37.6771 37.1124C37.7121 37.2569 37.6884 37.4093 37.6114 37.5363C37.5734 37.5986 37.5234 37.6527 37.4644 37.6957C37.4053 37.7388 37.3382 37.7698 37.267 37.7869C37.1958 37.8041 37.1219 37.8069 37.0496 37.7955C36.9773 37.784 36.9079 37.7583 36.8456 37.72ZM40.3577 29.4208L40.3587 29.4213C40.5735 29.553 40.7272 29.7646 40.786 30.0095C40.8447 30.2542 40.804 30.5121 40.6728 30.7268C40.5409 30.941 40.3293 31.0942 40.0846 31.1527C39.8397 31.2112 39.5815 31.1701 39.3669 31.0384C32.3997 26.7578 21.8776 25.5342 13.6757 28.0107C13.4469 28.0588 13.208 28.0211 13.0048 27.9043C12.7944 27.7834 12.638 27.5867 12.5676 27.3545C12.4972 27.1222 12.518 26.8718 12.6259 26.6544C12.73 26.4445 12.9075 26.2806 13.1244 26.1935C21.9378 23.5326 32.9084 24.8438 40.3577 29.4208ZM11.6775 17.7508L11.6778 17.7507C15.9479 16.4553 21.6957 15.9187 27.5315 16.3932C33.3697 16.8679 39.1976 18.3464 43.6646 20.9975L43.6648 20.9976C43.9705 21.1789 44.1916 21.4742 44.2795 21.8185C44.3674 22.1628 44.315 22.5279 44.1337 22.8336C43.9524 23.1392 43.6571 23.3603 43.3128 23.4483C42.9685 23.5362 42.6033 23.4837 42.2977 23.3024C38.0925 20.8037 32.5896 19.4718 27.2082 19.048C21.8229 18.6239 16.4466 19.1003 12.4537 20.3117C12.1141 20.4147 11.7475 20.3785 11.4346 20.2111C11.1217 20.0437 10.8881 19.7589 10.7851 19.4193C10.6822 19.0797 10.7184 18.7131 10.8858 18.4002C11.0531 18.0873 11.3379 17.8537 11.6775 17.7508ZM27 1C20.1044 1 13.4912 3.73928 8.61522 8.61522C3.73928 13.4912 1 20.1044 1 27C1 33.8956 3.73928 40.5088 8.61522 45.3848C13.4912 50.2607 20.1044 53 27 53C33.8956 53 40.5088 50.2607 45.3848 45.3848C50.2607 40.5088 53 33.8956 53 27C53 20.1044 50.2607 13.4912 45.3848 8.61522C40.5088 3.73928 33.8956 1 27 1Z" stroke="white" stroke-opacity="0.32" stroke-width="2"/>
</g>
<defs>
<clipPath id="clip0_46_22">
<rect width="54" height="54" fill="white"/>
</clipPath>
</defs>
</svg>
