<svg width="269" height="164" viewBox="0 0 269 164" fill="none" xmlns="http://www.w3.org/2000/svg">
<path d="M7 5C-3.49998 35.5 38.9502 117.033 63.4907 64.633C94.1664 -0.866683 104.761 4.09871 107.064 10.4645C109.368 16.8303 55.9419 132.162 72.9733 128.398C90.0047 124.634 116.427 23.0752 129.216 20.8466C142.005 18.6179 91.9793 136.719 101.098 139.818C110.217 142.917 162.23 28.0972 161.583 30.7309C160.937 33.3647 115.251 172.294 128.321 153.164C124.75 134.458 189.977 34.054 193.695 39.908C197.413 45.762 139.293 163.593 151.314 159.242C173.209 125.251 201.5 53 210.5 44C215.5 37.1223 235.5 13.5 247 24.9999L264 42M264 42C257.361 41.4142 253.639 41.0858 247 40.5M264 42L264 23.5" stroke="#FE6D73" stroke-width="9" stroke-linecap="round" stroke-linejoin="round"/>
<path d="M7 5C-3.49998 35.5 38.9502 117.033 63.4907 64.633C94.1664 -0.866683 104.761 4.09871 107.064 10.4645C109.368 16.8303 55.9419 132.162 72.9733 128.398C90.0047 124.634 116.427 23.0752 129.216 20.8466C142.005 18.6179 91.9793 136.719 101.098 139.818C110.217 142.917 162.23 28.0972 161.583 30.7309C160.937 33.3647 115.251 172.294 128.321 153.164C124.75 134.458 189.977 34.054 193.695 39.908C197.413 45.762 139.293 163.593 151.314 159.242C173.209 125.251 201.5 53 210.5 44C215.5 37.1223 235.5 13.5 247 24.9999L264 42M264 42C257.361 41.4142 253.639 41.0858 247 40.5M264 42L264 23.5" stroke="white" stroke-opacity="0.15" stroke-width="9" stroke-linecap="round" stroke-linejoin="round"/>
</svg>
