<svg width="21" height="21" viewBox="0 0 21 21" fill="none" xmlns="http://www.w3.org/2000/svg">
<g clip-path="url(#clip0_101_178)">
<path d="M4.66774 0H16.2998C16.8658 0 17.4154 0.0902344 17.9486 0.278906C18.7197 0.557813 19.417 1.05 19.942 1.68984C20.4752 2.32969 20.8279 3.11719 20.9509 3.9375C21.0002 4.24102 21.0084 4.54453 21.0084 4.84805V16.193C21.0084 16.5539 20.992 16.923 20.9181 17.2758C20.7541 18.0879 20.3685 18.8508 19.8107 19.466C19.2611 20.0813 18.5392 20.5406 17.7599 20.7867C17.2841 20.9344 16.792 21 16.2916 21C16.0701 21 4.63492 21 4.46266 20.9918C3.62594 20.9508 2.79742 20.6801 2.10016 20.2125C1.4193 19.7531 0.861485 19.1133 0.500548 18.375C0.188829 17.7434 0.0329698 17.0379 0.0329698 16.3324V4.66758C0.0165635 3.97031 0.16422 3.28125 0.467735 2.65781C0.82047 1.91953 1.37008 1.27148 2.05094 0.812109C2.7482 0.336328 3.56852 0.0574219 4.40524 0.0164063C4.48727 0 4.5775 0 4.66774 0Z" fill="url(#paint0_linear_101_178)"/>
<path d="M17.7188 17.1773C17.6449 17.0625 17.5629 16.9477 17.4727 16.841C17.2676 16.5949 17.0297 16.3816 16.7672 16.2012C16.4391 15.9797 16.0535 15.8402 15.6598 15.8238C15.3809 15.8074 15.102 15.8566 14.8395 15.9551C14.577 16.0453 14.3227 16.1766 14.0766 16.3078C13.7895 16.4555 13.5023 16.6031 13.1988 16.7262C12.8379 16.8738 12.4605 16.9887 12.075 17.0707C11.591 17.1609 11.0988 17.1937 10.6148 17.1855C9.73711 17.1691 8.85938 17.0379 8.02266 16.7918C7.28438 16.5703 6.57891 16.2668 5.91445 15.8812C5.33203 15.5449 4.79063 15.1594 4.28203 14.7246C3.86367 14.3637 3.47813 13.9781 3.11719 13.568C2.87109 13.2809 2.6332 12.9773 2.41172 12.6656C2.32148 12.5426 2.23945 12.4113 2.16562 12.2801L0 9.94219V4.65117C0 2.08359 2.07539 0 4.64297 0H8.78555L11.8535 3.11719C18.777 7.82578 16.5375 13.0184 16.5375 13.0184C16.5375 13.0184 18.5063 15.2332 17.7188 17.1773Z" fill="url(#paint1_linear_101_178)"/>
<path d="M11.8698 3.11719C18.7933 7.82578 16.5538 13.0184 16.5538 13.0184C16.5538 13.0184 18.5226 15.2414 17.7269 17.1855C17.7269 17.1855 16.9147 15.8238 15.553 15.8238C14.2405 15.8238 13.4694 17.1855 10.828 17.1855C4.94639 17.1855 2.16553 12.2719 2.16553 12.2719C7.46475 15.7582 11.0823 13.2891 11.0823 13.2891C8.69522 11.9027 3.61748 5.27461 3.61748 5.27461C8.03896 9.03984 9.95029 10.0324 9.95029 10.0324C8.81006 9.08906 5.61084 4.47891 5.61084 4.47891C8.17022 7.07109 13.2562 10.6887 13.2562 10.6887C14.6999 6.68555 11.8698 3.11719 11.8698 3.11719Z" fill="white"/>
</g>
<defs>
<linearGradient id="paint0_linear_101_178" x1="12.4928" y1="-0.749355" x2="8.52517" y2="21.7519" gradientUnits="userSpaceOnUse">
<stop stop-color="#FAAE42"/>
<stop offset="1" stop-color="#EF3E31"/>
</linearGradient>
<linearGradient id="paint1_linear_101_178" x1="10.7143" y1="0.339281" x2="7.81044" y2="16.8076" gradientUnits="userSpaceOnUse">
<stop stop-color="#E39F3A"/>
<stop offset="1" stop-color="#D33929"/>
</linearGradient>
<clipPath id="clip0_101_178">
<rect width="21" height="21" fill="white"/>
</clipPath>
</defs>
</svg>
