<svg width="146" height="143" viewBox="0 0 146 143" fill="none" xmlns="http://www.w3.org/2000/svg">
<path d="M74.652 98.479C74.4242 97.568 73.9687 97.1125 73.2854 97.1125C72.6021 97.1125 72.0327 97.568 71.5772 98.479L46.2958 140.842C45.6126 141.753 44.4738 142.323 42.8794 142.551C41.5129 142.778 40.0324 142.323 38.4381 141.184L19.9896 128.202C17.2564 126.152 16.9148 123.874 18.9646 121.369L49.7122 84.4718C50.3955 83.7885 50.6233 83.1052 50.3955 82.4219C50.1678 81.5109 49.3706 80.9415 48.004 80.7137L4.9574 68.7564C1.99652 67.8453 1.19936 65.4538 2.56592 61.5819L9.74036 41.4251C11.1069 38.4643 13.0429 37.6671 15.5482 39.0337L56.545 56.7989C57.6838 57.2545 58.5949 57.3683 59.2782 57.1406C59.9614 56.6851 60.3031 55.8879 60.3031 54.7491L56.545 7.94442C56.3173 7.03338 56.545 6.12233 57.2283 5.21129C58.1394 4.07249 59.392 3.50309 60.9864 3.50309H85.9261C87.2927 3.50309 88.3176 4.07249 89.0009 5.21129C89.6841 6.12233 90.0258 7.03338 90.0258 7.94442L85.9261 54.7491C85.6983 57.2545 86.7233 58.0516 89.0009 57.1406L130.681 38.692C134.097 37.3255 136.375 38.4643 137.514 42.1084L143.663 61.9235C144.802 65.3399 143.663 67.5037 140.247 68.4147L98.2251 80.7137C97.3141 80.9415 96.7447 81.5109 96.5169 82.4219C96.5169 83.1052 96.8586 83.9024 97.5419 84.8134L126.923 120.002C127.834 121.141 128.176 122.508 127.948 124.102C127.72 125.469 126.581 126.835 124.531 128.202L108.133 139.817C106.311 140.956 104.602 141.526 103.008 141.526C101.414 141.298 100.275 140.615 99.5917 139.476L74.652 98.479Z" fill="#1E1E1E"/>
</svg>
